STARTFONT 2.1
COMMENT  
COMMENT  Copyright (c) 1984, 1987 Adobe Systems Incorporated. All Rights Reserved. Copyright (c) 1988, 1991 Digital Equipment Corporation. All Rights Reserved.
COMMENT  
COMMENT  WARNING:  This bdf file was generated from a font server using
COMMENT  fstobdf.  The resulting font is subject to the same copyright,
COMMENT  license, and trademark restrictions as the original font.  The
COMMENT  authors and distributors of fstobdf disclaim all liability for
COMMENT  misuse of the program or its output.
COMMENT  
FONT -Adobe-Helvetica-Bold-R-Normal--24-240-75-75-P-138-ISO8859-1
SIZE 24 75 75
FONTBOUNDINGBOX 24 29 -1 -5
STARTPROPERTIES 32
FOUNDRY "Adobe"
FAMILY_NAME "Helvetica"
WEIGHT_NAME "Bold"
SLANT "R"
SETWIDTH_NAME "Normal"
ADD_STYLE_NAME ""
PIXEL_SIZE 24
POINT_SIZE 240
RESOLUTION_X 75
RESOLUTION_Y 75
SPACING "P"
AVERAGE_WIDTH 138
CHARSET_REGISTRY "ISO8859"
CHARSET_ENCODING "1"
CAP_HEIGHT 19
X_HEIGHT 14
FACE_NAME "Helvetica Bold"
COPYRIGHT "Copyright (c) 1984, 1987 Adobe Systems Incorporated. All Rights Reserved. Copyright (c) 1988, 1991 Digital Equipment Corporation. All Rights Reserved."
NOTICE "Helvetica is a trademark of Linotype-Hell AG and/or its subsidiaries.  "
_DEC_DEVICE_FONTNAMES "PS=Helvetica-Bold"
_DEC_PRODUCTINFO "DECwindows Fonts V2.2, 07-Nov-1991"
RELATIVE_SETWIDTH 50
RELATIVE_WEIGHT 70
CHARSET_COLLECTIONS "ASCII ISO8859-1 ADOBE-STANDARD"
FULL_NAME "Helvetica Bold"
FONT "-Adobe-Helvetica-Bold-R-Normal--24-240-75-75-P-138-ISO8859-1"
WEIGHT 10
RESOLUTION 103
QUAD_WIDTH 15
DEFAULT_CHAR 32
FONT_ASCENT 22
FONT_DESCENT 5
ENDPROPERTIES
CHARS 191
STARTCHAR space
ENCODING 32
SWIDTH 240 0
DWIDTH 6 0
BBX 1 1 0 0
BITMAP
00
ENDCHAR
STARTCHAR exclam
ENCODING 33
SWIDTH 280 0
DWIDTH 7 0
BBX 3 19 2 0
BITMAP
e0
e0
e0
e0
e0
e0
e0
e0
e0
e0
e0
e0
e0
e0
00
00
e0
e0
e0
ENDCHAR
STARTCHAR quotedbl
ENCODING 34
SWIDTH 360 0
DWIDTH 9 0
BBX 5 6 2 13
BITMAP
d8
d8
d8
d8
d8
90
ENDCHAR
STARTCHAR numbersign
ENCODING 35
SWIDTH 560 0
DWIDTH 14 0
BBX 12 18 0 0
BITMAP
0cc0
0cc0
0cc0
0cc0
0cc0
7ff0
7ff0
1980
1980
1980
1980
ffe0
ffe0
3300
3300
3300
3300
3300
ENDCHAR
STARTCHAR dollar
ENCODING 36
SWIDTH 520 0
DWIDTH 13 0
BBX 12 21 0 -2
BITMAP
0600
3f80
7fc0
f6e0
e6e0
e6e0
f600
7e00
3e00
0f00
07c0
07e0
06f0
e670
e670
e670
f6f0
7fe0
1fc0
0600
0600
ENDCHAR
STARTCHAR percent
ENCODING 37
SWIDTH 880 0
DWIDTH 22 0
BBX 21 18 0 0
BITMAP
000700
3e0700
7f0e00
e38e00
c19c00
c19c00
e3b800
7f3800
3e7000
007000
00e3e0
00e7f0
01ce38
01cc18
038c18
038e38
0707f0
0703e0
ENDCHAR
STARTCHAR ampersand
ENCODING 38
SWIDTH 720 0
DWIDTH 18 0
BBX 16 18 1 0
BITMAP
0f80
1fc0
3de0
38e0
38e0
38e0
1dc0
0f80
1f00
3f9c
7bdc
71fc
e0f8
e070
e0f8
f1fc
7fce
1f87
ENDCHAR
STARTCHAR apostrophe
ENCODING 39
SWIDTH 280 0
DWIDTH 7 0
BBX 3 6 2 13
BITMAP
e0
e0
e0
60
60
c0
ENDCHAR
STARTCHAR parenleft
ENCODING 40
SWIDTH 320 0
DWIDTH 8 0
BBX 6 24 1 -5
BITMAP
0c
1c
38
38
70
70
60
e0
e0
e0
e0
e0
e0
e0
e0
e0
e0
60
70
70
38
38
1c
0c
ENDCHAR
STARTCHAR parenright
ENCODING 41
SWIDTH 320 0
DWIDTH 8 0
BBX 6 24 1 -5
BITMAP
c0
e0
70
70
38
38
18
1c
1c
1c
1c
1c
1c
1c
1c
1c
1c
18
38
38
70
70
e0
c0
ENDCHAR
STARTCHAR asterisk
ENCODING 42
SWIDTH 400 0
DWIDTH 10 0
BBX 8 7 1 12
BITMAP
18
18
db
ff
3c
66
66
ENDCHAR
STARTCHAR plus
ENCODING 43
SWIDTH 600 0
DWIDTH 15 0
BBX 11 12 2 1
BITMAP
0e00
0e00
0e00
0e00
0e00
ffe0
ffe0
0e00
0e00
0e00
0e00
0e00
ENDCHAR
STARTCHAR comma
ENCODING 44
SWIDTH 280 0
DWIDTH 7 0
BBX 3 6 2 -3
BITMAP
e0
e0
e0
60
60
c0
ENDCHAR
STARTCHAR minus
ENCODING 45
SWIDTH 600 0
DWIDTH 15 0
BBX 12 2 1 6
BITMAP
fff0
fff0
ENDCHAR
STARTCHAR period
ENCODING 46
SWIDTH 280 0
DWIDTH 7 0
BBX 3 3 2 0
BITMAP
e0
e0
e0
ENDCHAR
STARTCHAR slash
ENCODING 47
SWIDTH 320 0
DWIDTH 8 0
BBX 8 19 0 0
BITMAP
07
07
06
06
0e
0c
0c
1c
1c
18
18
38
30
30
70
60
60
e0
e0
ENDCHAR
STARTCHAR 0
ENCODING 48
SWIDTH 520 0
DWIDTH 13 0
BBX 12 18 0 0
BITMAP
1f80
3fc0
79e0
70e0
70e0
e070
e070
e070
e070
e070
e070
e070
e070
70e0
70e0
79e0
3fc0
1f80
ENDCHAR
STARTCHAR 1
ENCODING 49
SWIDTH 520 0
DWIDTH 13 0
BBX 7 18 2 0
BITMAP
0e
0e
1e
fe
fe
0e
0e
0e
0e
0e
0e
0e
0e
0e
0e
0e
0e
0e
ENDCHAR
STARTCHAR 2
ENCODING 50
SWIDTH 520 0
DWIDTH 13 0
BBX 12 18 0 0
BITMAP
1f00
7fc0
71e0
e0e0
e070
e070
0070
00e0
01e0
03c0
0780
1f00
3c00
7800
f000
e000
fff0
fff0
ENDCHAR
STARTCHAR 3
ENCODING 51
SWIDTH 520 0
DWIDTH 13 0
BBX 12 18 0 0
BITMAP
1f00
7fc0
71c0
e0e0
e0e0
e0e0
00e0
01c0
0f80
0fe0
00e0
0070
0070
e070
e0f0
71e0
7fe0
1f80
ENDCHAR
STARTCHAR 4
ENCODING 52
SWIDTH 520 0
DWIDTH 13 0
BBX 12 18 0 0
BITMAP
01c0
03c0
03c0
07c0
07c0
0dc0
1dc0
19c0
31c0
71c0
61c0
e1c0
fff0
fff0
01c0
01c0
01c0
01c0
ENDCHAR
STARTCHAR 5
ENCODING 53
SWIDTH 520 0
DWIDTH 13 0
BBX 12 18 0 0
BITMAP
7fe0
7fe0
7000
7000
7000
7000
7f80
7fc0
71e0
00e0
0070
0070
0070
e070
e0f0
f1e0
7fc0
1f80
ENDCHAR
STARTCHAR 6
ENCODING 54
SWIDTH 520 0
DWIDTH 13 0
BBX 12 18 0 0
BITMAP
0f80
3fe0
78e0
7070
e070
e000
e000
ef00
ffc0
f9e0
f0e0
e070
e070
e070
70e0
79e0
3fc0
1f80
ENDCHAR
STARTCHAR 7
ENCODING 55
SWIDTH 520 0
DWIDTH 13 0
BBX 12 18 0 0
BITMAP
fff0
fff0
00f0
00e0
01c0
01c0
0380
0380
0700
0700
0e00
0e00
1e00
1c00
1c00
3c00
3800
3800
ENDCHAR
STARTCHAR 8
ENCODING 56
SWIDTH 520 0
DWIDTH 13 0
BBX 12 18 0 0
BITMAP
0f00
3fc0
39c0
70e0
70e0
70e0
70e0
39c0
1f80
3fc0
70e0
e070
e070
e070
e070
70e0
7fe0
1f80
ENDCHAR
STARTCHAR 9
ENCODING 57
SWIDTH 520 0
DWIDTH 13 0
BBX 12 18 0 0
BITMAP
1f80
7fc0
79e0
f0e0
e070
e070
e070
e070
f0f0
79f0
7ff0
1f70
0070
0070
e0e0
f3e0
7fc0
1f00
ENDCHAR
STARTCHAR colon
ENCODING 58
SWIDTH 280 0
DWIDTH 7 0
BBX 3 14 2 0
BITMAP
e0
e0
e0
00
00
00
00
00
00
00
00
e0
e0
e0
ENDCHAR
STARTCHAR semicolon
ENCODING 59
SWIDTH 280 0
DWIDTH 7 0
BBX 3 17 2 -3
BITMAP
e0
e0
e0
00
00
00
00
00
00
00
00
e0
e0
e0
60
60
c0
ENDCHAR
STARTCHAR less
ENCODING 60
SWIDTH 600 0
DWIDTH 15 0
BBX 13 12 0 1
BITMAP
0038
00f8
03e0
0f80
3e00
f000
f000
3e00
0f80
03e0
00f8
0038
ENDCHAR
STARTCHAR equal
ENCODING 61
SWIDTH 560 0
DWIDTH 14 0
BBX 10 6 2 4
BITMAP
ffc0
ffc0
0000
0000
ffc0
ffc0
ENDCHAR
STARTCHAR greater
ENCODING 62
SWIDTH 560 0
DWIDTH 14 0
BBX 13 12 0 1
BITMAP
e000
f800
3e00
0f80
03e0
0078
0078
03e0
0f80
3e00
f800
e000
ENDCHAR
STARTCHAR question
ENCODING 63
SWIDTH 600 0
DWIDTH 15 0
BBX 11 19 2 0
BITMAP
1f80
7fc0
79e0
f0e0
e0e0
e1e0
01c0
03c0
0780
0700
0e00
0e00
0e00
0e00
0000
0000
0e00
0e00
0e00
ENDCHAR
STARTCHAR at
ENCODING 64
SWIDTH 960 0
DWIDTH 24 0
BBX 22 22 1 -4
BITMAP
01ff00
07ffc0
0f81f0
1e0078
3c0038
787d9c
70ff9c
f1c71c
e3871c
e30e1c
e70e38
e70c38
e71c70
e71c70
e39de0
f3ffc0
71f700
780000
3c0000
1f0700
0fff00
03fc00
ENDCHAR
STARTCHAR A
ENCODING 65
SWIDTH 720 0
DWIDTH 18 0
BBX 16 19 1 0
BITMAP
03c0
03c0
07e0
07e0
0e60
0e70
0e70
1c38
1c38
1c38
381c
381c
3ffc
7ffe
700e
700e
e007
e007
e007
ENDCHAR
STARTCHAR B
ENCODING 66
SWIDTH 720 0
DWIDTH 18 0
BBX 15 19 2 0
BITMAP
ffe0
fff8
e078
e01c
e01c
e01c
e01c
e038
fff0
fff8
e01c
e00e
e00e
e00e
e00e
e01e
e07c
fff8
ffe0
ENDCHAR
STARTCHAR C
ENCODING 67
SWIDTH 720 0
DWIDTH 18 0
BBX 16 19 1 0
BITMAP
07f0
1ffc
3e3e
780f
7007
f000
e000
e000
e000
e000
e000
e000
e000
f007
7007
780f
3e3e
1ffc
07f0
ENDCHAR
STARTCHAR D
ENCODING 68
SWIDTH 760 0
DWIDTH 19 0
BBX 16 19 2 0
BITMAP
ffe0
fff8
e07c
e01e
e00e
e00f
e007
e007
e007
e007
e007
e007
e007
e00f
e00e
e01e
e07c
fff8
ffe0
ENDCHAR
STARTCHAR E
ENCODING 69
SWIDTH 640 0
DWIDTH 16 0
BBX 13 19 2 0
BITMAP
fff0
fff0
e000
e000
e000
e000
e000
e000
ffe0
ffe0
e000
e000
e000
e000
e000
e000
e000
fff8
fff8
ENDCHAR
STARTCHAR F
ENCODING 70
SWIDTH 600 0
DWIDTH 15 0
BBX 12 19 2 0
BITMAP
fff0
fff0
e000
e000
e000
e000
e000
e000
ffe0
ffe0
e000
e000
e000
e000
e000
e000
e000
e000
e000
ENDCHAR
STARTCHAR G
ENCODING 71
SWIDTH 760 0
DWIDTH 19 0
BBX 17 19 1 0
BITMAP
07f000
1ffc00
3e3e00
780f00
700700
f00000
e00000
e00000
e00000
e07f80
e07f80
e00380
e00380
f00380
700780
780f80
3e3f80
1ffb80
07f180
ENDCHAR
STARTCHAR H
ENCODING 72
SWIDTH 760 0
DWIDTH 19 0
BBX 15 19 2 0
BITMAP
e00e
e00e
e00e
e00e
e00e
e00e
e00e
e00e
fffe
fffe
e00e
e00e
e00e
e00e
e00e
e00e
e00e
e00e
e00e
ENDCHAR
STARTCHAR I
ENCODING 73
SWIDTH 280 0
DWIDTH 7 0
BBX 3 19 2 0
BITMAP
e0
e0
e0
e0
e0
e0
e0
e0
e0
e0
e0
e0
e0
e0
e0
e0
e0
e0
e0
ENDCHAR
STARTCHAR J
ENCODING 74
SWIDTH 560 0
DWIDTH 14 0
BBX 11 19 1 0
BITMAP
00e0
00e0
00e0
00e0
00e0
00e0
00e0
00e0
00e0
00e0
00e0
00e0
e0e0
e0e0
e0e0
e0e0
71e0
7fc0
3f80
ENDCHAR
STARTCHAR K
ENCODING 75
SWIDTH 720 0
DWIDTH 18 0
BBX 16 19 2 0
BITMAP
e03c
e078
e0f0
e1e0
e3c0
e780
ef00
fe00
fe00
ff00
f780
e3c0
e1e0
e0f0
e078
e03c
e01e
e00f
e007
ENDCHAR
STARTCHAR L
ENCODING 76
SWIDTH 600 0
DWIDTH 15 0
BBX 12 19 2 0
BITMAP
e000
e000
e000
e000
e000
e000
e000
e000
e000
e000
e000
e000
e000
e000
e000
e000
e000
fff0
fff0
ENDCHAR
STARTCHAR M
ENCODING 77
SWIDTH 920 0
DWIDTH 23 0
BBX 19 19 2 0
BITMAP
e000e0
f001e0
f001e0
f803e0
f803e0
fc07e0
ec06e0
ee0ee0
e60ce0
e71ce0
e71ce0
e318e0
e3b8e0
e3b8e0
e1f0e0
e1f0e0
e0e0e0
e0e0e0
e0e0e0
ENDCHAR
STARTCHAR N
ENCODING 78
SWIDTH 760 0
DWIDTH 19 0
BBX 15 19 2 0
BITMAP
e00e
f00e
f00e
f80e
f80e
fc0e
ee0e
ee0e
e70e
e38e
e38e
e1ce
e0ce
e0ee
e07e
e03e
e03e
e01e
e00e
ENDCHAR
STARTCHAR O
ENCODING 79
SWIDTH 760 0
DWIDTH 19 0
BBX 17 19 1 0
BITMAP
07f000
1ffc00
3e3e00
780f00
700700
f00780
e00380
e00380
e00380
e00380
e00380
e00380
e00380
f00780
700700
780f00
3e3e00
1ffc00
07f000
ENDCHAR
STARTCHAR P
ENCODING 80
SWIDTH 680 0
DWIDTH 17 0
BBX 14 19 2 0
BITMAP
ffe0
fff8
e038
e01c
e01c
e01c
e01c
e038
fff8
fff0
e000
e000
e000
e000
e000
e000
e000
e000
e000
ENDCHAR
STARTCHAR Q
ENCODING 81
SWIDTH 760 0
DWIDTH 19 0
BBX 17 19 1 0
BITMAP
07f000
1ffc00
3e3e00
780f00
700700
f00780
e00380
e00380
e00380
e00380
e00380
e00380
e00380
f00780
70f700
787f00
3e1e00
1fff00
07f780
ENDCHAR
STARTCHAR R
ENCODING 82
SWIDTH 680 0
DWIDTH 17 0
BBX 14 19 2 0
BITMAP
ffe0
fff8
e038
e01c
e01c
e01c
e01c
e038
fff8
fff0
e078
e038
e01c
e01c
e01c
e01c
e01c
e01c
e01c
ENDCHAR
STARTCHAR S
ENCODING 83
SWIDTH 680 0
DWIDTH 17 0
BBX 15 19 1 0
BITMAP
07e0
1ff8
3c7c
781c
701c
7000
7800
3e00
1fe0
03f8
007c
001e
000e
e00e
e00e
f01e
7c7c
3ff8
0fe0
ENDCHAR
STARTCHAR T
ENCODING 84
SWIDTH 600 0
DWIDTH 15 0
BBX 15 19 0 0
BITMAP
fffe
fffe
0380
0380
0380
0380
0380
0380
0380
0380
0380
0380
0380
0380
0380
0380
0380
0380
0380
ENDCHAR
STARTCHAR U
ENCODING 85
SWIDTH 760 0
DWIDTH 19 0
BBX 15 19 2 0
BITMAP
e00e
e00e
e00e
e00e
e00e
e00e
e00e
e00e
e00e
e00e
e00e
e00e
e00e
e00e
f01e
701c
7c7c
3ff8
0fe0
ENDCHAR
STARTCHAR V
ENCODING 86
SWIDTH 720 0
DWIDTH 18 0
BBX 16 19 1 0
BITMAP
e007
e007
f00f
700e
781e
381c
381c
3c3c
1c38
1c38
1e78
0e70
0e70
0e70
07e0
07e0
03c0
03c0
03c0
ENDCHAR
STARTCHAR W
ENCODING 87
SWIDTH 920 0
DWIDTH 23 0
BBX 21 19 1 0
BITMAP
e07038
e07038
e07038
e07038
70f870
70f870
70d870
71dc70
31dc60
39dce0
398ce0
3b8ee0
1b8ec0
1b8ec0
1f07c0
1f07c0
0e0380
0e0380
0e0380
ENDCHAR
STARTCHAR X
ENCODING 88
SWIDTH 720 0
DWIDTH 18 0
BBX 16 19 1 0
BITMAP
e007
f00f
781e
381c
1c38
0e70
0ff0
07e0
03c0
03c0
07e0
0ff0
0e70
1c38
3c3c
381c
700e
f00f
e007
ENDCHAR
STARTCHAR Y
ENCODING 89
SWIDTH 680 0
DWIDTH 17 0
BBX 15 19 1 0
BITMAP
e00e
f01e
701c
783c
3838
3c78
1c70
1ef0
0ee0
0fe0
07c0
07c0
0380
0380
0380
0380
0380
0380
0380
ENDCHAR
STARTCHAR Z
ENCODING 90
SWIDTH 640 0
DWIDTH 16 0
BBX 14 19 1 0
BITMAP
fffc
fffc
003c
0078
00f0
01e0
01e0
03c0
0780
0780
0f00
1e00
1e00
3c00
3800
7800
f000
fffc
fffc
ENDCHAR
STARTCHAR bracketleft
ENCODING 91
SWIDTH 320 0
DWIDTH 8 0
BBX 5 24 1 -5
BITMAP
f8
f8
e0
e0
e0
e0
e0
e0
e0
e0
e0
e0
e0
e0
e0
e0
e0
e0
e0
e0
e0
e0
f8
f8
ENDCHAR
STARTCHAR backslash
ENCODING 92
SWIDTH 320 0
DWIDTH 8 0
BBX 8 19 0 0
BITMAP
e0
e0
60
60
70
30
30
38
38
18
18
1c
0c
0c
0e
06
06
07
07
ENDCHAR
STARTCHAR bracketright
ENCODING 93
SWIDTH 320 0
DWIDTH 8 0
BBX 5 24 2 -5
BITMAP
f8
f8
38
38
38
38
38
38
38
38
38
38
38
38
38
38
38
38
38
38
38
38
f8
f8
ENDCHAR
STARTCHAR asciicircum
ENCODING 94
SWIDTH 560 0
DWIDTH 14 0
BBX 11 9 1 10
BITMAP
0e00
0e00
1f00
1b00
3b80
71c0
71c0
e0e0
e0e0
ENDCHAR
STARTCHAR underscore
ENCODING 95
SWIDTH 560 0
DWIDTH 14 0
BBX 14 2 0 -5
BITMAP
fffc
fffc
ENDCHAR
STARTCHAR grave
ENCODING 96
SWIDTH 280 0
DWIDTH 7 0
BBX 3 6 2 13
BITMAP
60
c0
c0
e0
e0
e0
ENDCHAR
STARTCHAR a
ENCODING 97
SWIDTH 560 0
DWIDTH 14 0
BBX 12 14 1 0
BITMAP
1f80
3fc0
71e0
70e0
00e0
07e0
3fe0
7ce0
f0e0
e0e0
e1e0
f3e0
7ff0
3e70
ENDCHAR
STARTCHAR b
ENCODING 98
SWIDTH 600 0
DWIDTH 15 0
BBX 12 19 2 0
BITMAP
e000
e000
e000
e000
e000
ef80
ffc0
f9e0
f0e0
e070
e070
e070
e070
e070
e070
f0e0
f9e0
ffc0
ef80
ENDCHAR
STARTCHAR c
ENCODING 99
SWIDTH 520 0
DWIDTH 13 0
BBX 11 14 1 0
BITMAP
1f80
3fc0
79e0
70e0
e000
e000
e000
e000
e000
e000
70e0
79e0
3fc0
1f80
ENDCHAR
STARTCHAR d
ENCODING 100
SWIDTH 600 0
DWIDTH 15 0
BBX 12 19 1 0
BITMAP
0070
0070
0070
0070
0070
1f70
3ff0
79f0
70f0
e070
e070
e070
e070
e070
e070
70f0
79f0
3ff0
1f70
ENDCHAR
STARTCHAR e
ENCODING 101
SWIDTH 560 0
DWIDTH 14 0
BBX 12 14 1 0
BITMAP
0f00
3fc0
79e0
70e0
e070
e070
fff0
fff0
e000
e000
7070
78f0
3fe0
0f80
ENDCHAR
STARTCHAR f
ENCODING 102
SWIDTH 360 0
DWIDTH 9 0
BBX 7 19 1 0
BITMAP
1e
3e
38
38
38
fe
fe
38
38
38
38
38
38
38
38
38
38
38
38
ENDCHAR
STARTCHAR g
ENCODING 103
SWIDTH 600 0
DWIDTH 15 0
BBX 12 19 1 -5
BITMAP
1f70
3ff0
79f0
70f0
e070
e070
e070
e070
e070
e070
70f0
79f0
3ff0
1f70
0070
e070
f0e0
7fe0
1f80
ENDCHAR
STARTCHAR h
ENCODING 104
SWIDTH 600 0
DWIDTH 15 0
BBX 11 19 2 0
BITMAP
e000
e000
e000
e000
e000
ef00
ffc0
f1c0
e0e0
e0e0
e0e0
e0e0
e0e0
e0e0
e0e0
e0e0
e0e0
e0e0
e0e0
ENDCHAR
STARTCHAR i
ENCODING 105
SWIDTH 280 0
DWIDTH 7 0
BBX 3 19 2 0
BITMAP
e0
e0
e0
00
00
e0
e0
e0
e0
e0
e0
e0
e0
e0
e0
e0
e0
e0
e0
ENDCHAR
STARTCHAR j
ENCODING 106
SWIDTH 280 0
DWIDTH 7 0
BBX 5 24 0 -5
BITMAP
38
38
38
00
00
38
38
38
38
38
38
38
38
38
38
38
38
38
38
38
38
38
f8
f0
ENDCHAR
STARTCHAR k
ENCODING 107
SWIDTH 560 0
DWIDTH 14 0
BBX 12 19 2 0
BITMAP
e000
e000
e000
e000
e000
e1e0
e3c0
e780
ef00
fe00
fc00
fe00
ef00
e700
e780
e3c0
e1c0
e1e0
e0f0
ENDCHAR
STARTCHAR l
ENCODING 108
SWIDTH 280 0
DWIDTH 7 0
BBX 3 19 2 0
BITMAP
e0
e0
e0
e0
e0
e0
e0
e0
e0
e0
e0
e0
e0
e0
e0
e0
e0
e0
e0
ENDCHAR
STARTCHAR m
ENCODING 109
SWIDTH 840 0
DWIDTH 21 0
BBX 17 14 2 0
BITMAP
ef3e00
ffff00
f3e780
e1c380
e1c380
e1c380
e1c380
e1c380
e1c380
e1c380
e1c380
e1c380
e1c380
e1c380
ENDCHAR
STARTCHAR n
ENCODING 110
SWIDTH 600 0
DWIDTH 15 0
BBX 11 14 2 0
BITMAP
ef80
ffc0
f1c0
e0e0
e0e0
e0e0
e0e0
e0e0
e0e0
e0e0
e0e0
e0e0
e0e0
e0e0
ENDCHAR
STARTCHAR o
ENCODING 111
SWIDTH 560 0
DWIDTH 14 0
BBX 12 14 1 0
BITMAP
0f00
3fc0
79e0
70e0
e070
e070
e070
e070
e070
e070
70e0
79e0
3fc0
0f00
ENDCHAR
STARTCHAR p
ENCODING 112
SWIDTH 600 0
DWIDTH 15 0
BBX 12 19 2 -5
BITMAP
ef80
ffc0
f9e0
f0e0
e070
e070
e070
e070
e070
e070
f0e0
f9e0
ffc0
ef80
e000
e000
e000
e000
e000
ENDCHAR
STARTCHAR q
ENCODING 113
SWIDTH 600 0
DWIDTH 15 0
BBX 12 19 1 -5
BITMAP
1f70
3ff0
79f0
70f0
e070
e070
e070
e070
e070
e070
70f0
79f0
3ff0
1f70
0070
0070
0070
0070
0070
ENDCHAR
STARTCHAR r
ENCODING 114
SWIDTH 400 0
DWIDTH 10 0
BBX 7 14 2 0
BITMAP
e6
ee
fe
f0
e0
e0
e0
e0
e0
e0
e0
e0
e0
e0
ENDCHAR
STARTCHAR s
ENCODING 115
SWIDTH 520 0
DWIDTH 13 0
BBX 11 14 1 0
BITMAP
3f00
7f80
f3c0
e1c0
e000
fc00
7f80
0fc0
01e0
e0e0
e0e0
f1e0
7fc0
3f80
ENDCHAR
STARTCHAR t
ENCODING 116
SWIDTH 360 0
DWIDTH 9 0
BBX 7 18 1 0
BITMAP
38
38
38
38
fe
fe
38
38
38
38
38
38
38
38
38
38
3e
1e
ENDCHAR
STARTCHAR u
ENCODING 117
SWIDTH 600 0
DWIDTH 15 0
BBX 11 14 2 0
BITMAP
e0e0
e0e0
e0e0
e0e0
e0e0
e0e0
e0e0
e0e0
e0e0
e0e0
e1e0
73e0
7ee0
1ce0
ENDCHAR
STARTCHAR v
ENCODING 118
SWIDTH 560 0
DWIDTH 14 0
BBX 12 14 1 0
BITMAP
e070
e070
e070
70e0
70e0
70e0
39c0
39c0
39c0
1f80
1f80
0f00
0f00
0f00
ENDCHAR
STARTCHAR w
ENCODING 119
SWIDTH 760 0
DWIDTH 19 0
BBX 19 14 0 0
BITMAP
e0e0e0
e0e0e0
60e0c0
71f1c0
71f1c0
31b180
33b980
3bbb80
1b1b00
1f1f00
1f1f00
0e0e00
0e0e00
0e0e00
ENDCHAR
STARTCHAR x
ENCODING 120
SWIDTH 520 0
DWIDTH 13 0
BBX 11 14 1 0
BITMAP
e0e0
f1e0
71c0
3b80
3f80
1f00
0e00
1f00
1f00
3b80
7bc0
71c0
f1e0
e0e0
ENDCHAR
STARTCHAR y
ENCODING 121
SWIDTH 600 0
DWIDTH 15 0
BBX 13 19 1 -5
BITMAP
e038
e038
7038
7870
3870
3cf0
1ce0
1ce0
0fc0
0fc0
07c0
0780
0380
0380
0700
0700
0e00
3e00
3c00
ENDCHAR
STARTCHAR z
ENCODING 122
SWIDTH 520 0
DWIDTH 13 0
BBX 11 14 1 0
BITMAP
ffe0
ffe0
01c0
0380
0780
0f00
0e00
1e00
3c00
3800
7000
f000
ffe0
ffe0
ENDCHAR
STARTCHAR braceleft
ENCODING 123
SWIDTH 400 0
DWIDTH 10 0
BBX 7 24 1 -5
BITMAP
0e
1c
38
38
38
38
38
38
38
38
70
e0
e0
70
38
38
38
38
38
38
38
38
1c
0e
ENDCHAR
STARTCHAR bar
ENCODING 124
SWIDTH 280 0
DWIDTH 7 0
BBX 3 24 2 -5
BITMAP
e0
e0
e0
e0
e0
e0
e0
e0
e0
e0
e0
e0
e0
e0
e0
e0
e0
e0
e0
e0
e0
e0
e0
e0
ENDCHAR
STARTCHAR braceright
ENCODING 125
SWIDTH 400 0
DWIDTH 10 0
BBX 7 24 2 -5
BITMAP
e0
70
38
38
38
38
38
38
38
38
1c
0e
0e
1c
38
38
38
38
38
38
38
38
70
e0
ENDCHAR
STARTCHAR asciitilde
ENCODING 126
SWIDTH 560 0
DWIDTH 14 0
BBX 11 4 1 5
BITMAP
78e0
fee0
efe0
e3c0
ENDCHAR
STARTCHAR nobreakspace
ENCODING 160
SWIDTH 240 0
DWIDTH 6 0
BBX 1 1 0 0
BITMAP
00
ENDCHAR
STARTCHAR exclamdown
ENCODING 161
SWIDTH 280 0
DWIDTH 7 0
BBX 3 19 2 -5
BITMAP
00
00
00
00
00
00
00
00
00
00
00
00
00
00
00
00
00
00
00
ENDCHAR
STARTCHAR cent
ENCODING 162
SWIDTH 560 0
DWIDTH 14 0
BBX 11 18 1 -2
BITMAP
0000
0000
0000
0000
0000
0000
0000
e0e0
e000
00e0
e0e0
e0e0
e0e0
e0e0
e0e0
e0e0
e000
8000
ENDCHAR
STARTCHAR sterling
ENCODING 163
SWIDTH 560 0
DWIDTH 14 0
BBX 13 18 0 0
BITMAP
8018
8038
c078
e070
60e0
00e0
00e0
00e0
00e0
00e8
00e8
e078
e078
c038
8018
0018
0018
8038
ENDCHAR
STARTCHAR currency
ENCODING 164
SWIDTH 560 0
DWIDTH 14 0
BBX 12 12 1 3
BITMAP
c070
e070
e070
0070
0030
0010
00f0
c0f0
c010
0010
0010
0030
ENDCHAR
STARTCHAR yen
ENCODING 165
SWIDTH 560 0
DWIDTH 14 0
BBX 13 18 0 0
BITMAP
0038
0070
38f8
f8f8
f0c0
30e8
7078
e038
c070
e070
e070
e070
e038
c078
e0e8
70c0
30e0
38e0
ENDCHAR
STARTCHAR brokenbar
ENCODING 166
SWIDTH 280 0
DWIDTH 7 0
BBX 3 23 2 -4
BITMAP
20
60
60
60
60
20
e0
20
e0
00
c0
00
c0
60
e0
60
e0
00
00
60
e0
60
e0
ENDCHAR
STARTCHAR section
ENCODING 167
SWIDTH 560 0
DWIDTH 14 0
BBX 12 24 1 -5
BITMAP
0700
0700
0700
0700
0700
e0e0
e0e0
e0e0
e0e0
e000
0000
0000
e0e0
e0e0
e0e0
e0e0
e010
8030
c070
e070
e070
e030
0010
0070
ENDCHAR
STARTCHAR diaeresis
ENCODING 168
SWIDTH 360 0
DWIDTH 9 0
BBX 7 2 1 16
BITMAP
00
f6
ENDCHAR
STARTCHAR copyright
ENCODING 169
SWIDTH 760 0
DWIDTH 19 0
BBX 17 17 1 0
BITMAP
80e380
e1e080
e07000
787000
701e80
0fc000
800380
71e000
e07980
3fc000
80ee80
07f000
1e3c00
380e00
700700
63e300
e73380
ENDCHAR
STARTCHAR ordfeminine
ENCODING 170
SWIDTH 400 0
DWIDTH 10 0
BBX 8 12 1 7
BITMAP
ce
31
80
ce
01
80
ce
01
80
ce
01
80
ENDCHAR
STARTCHAR guillemotleft
ENCODING 171
SWIDTH 520 0
DWIDTH 13 0
BBX 10 8 1 3
BITMAP
ce00
80c0
3180
63c0
0040
0700
3800
0000
ENDCHAR
STARTCHAR notsign
ENCODING 172
SWIDTH 600 0
DWIDTH 15 0
BBX 12 7 1 4
BITMAP
3c00
07f0
0070
fec0
1e70
e6c0
ff70
ENDCHAR
STARTCHAR hyphen
ENCODING 173
SWIDTH 320 0
DWIDTH 8 0
BBX 7 3 0 6
BITMAP
00
fe
fe
ENDCHAR
STARTCHAR registered
ENCODING 174
SWIDTH 760 0
DWIDTH 19 0
BBX 17 17 1 0
BITMAP
1dc000
807700
ee0080
007700
3b8000
c0ff80
fff000
300000
003000
300000
fefe80
07f000
1e3c00
380e00
700700
67e300
e63380
ENDCHAR
STARTCHAR macron
ENCODING 175
SWIDTH 360 0
DWIDTH 9 0
BBX 7 2 1 17
BITMAP
c6
30
ENDCHAR
STARTCHAR degree
ENCODING 176
SWIDTH 360 0
DWIDTH 9 0
BBX 8 7 0 11
BITMAP
80
c6
31
80
c7
e1
80
ENDCHAR
STARTCHAR plusminus
ENCODING 177
SWIDTH 600 0
DWIDTH 15 0
BBX 11 13 2 0
BITMAP
c6c0
80c0
6180
e620
8060
1b00
7000
0020
0e00
1e20
0000
f000
fee0
ENDCHAR
STARTCHAR twosuperior
ENCODING 178
SWIDTH 280 0
DWIDTH 7 0
BBX 6 10 0 8
BITMAP
3c
64
c0
c0
c0
64
3c
0c
00
0c
ENDCHAR
STARTCHAR threesuperior
ENCODING 179
SWIDTH 280 0
DWIDTH 7 0
BBX 6 10 0 8
BITMAP
00
0c
00
0c
00
fc
e0
fc
e0
0c
ENDCHAR
STARTCHAR acute
ENCODING 180
SWIDTH 320 0
DWIDTH 8 0
BBX 6 4 1 15
BITMAP
00
0c
00
0c
ENDCHAR
STARTCHAR mu
ENCODING 181
SWIDTH 600 0
DWIDTH 15 0
BBX 11 19 2 -5
BITMAP
0000
0000
00e0
e0e0
e060
fcc0
0c00
78e0
c0e0
fc60
fcc0
0c20
3800
cce0
7800
3860
e0e0
e0e0
e0e0
ENDCHAR
STARTCHAR paragraph
ENCODING 182
SWIDTH 520 0
DWIDTH 13 0
BBX 11 24 1 -5
BITMAP
e0e0
e0e0
e0e0
e0e0
e0e0
e0e0
e0e0
e0e0
e0e0
e0e0
e0e0
e0e0
00e0
00e0
00e0
00e0
0000
e020
e060
c060
c0e0
c0e0
c0e0
c0e0
ENDCHAR
STARTCHAR periodcentered
ENCODING 183
SWIDTH 280 0
DWIDTH 7 0
BBX 3 3 2 6
BITMAP
c0
e0
c0
ENDCHAR
STARTCHAR cedilla
ENCODING 184
SWIDTH 320 0
DWIDTH 8 0
BBX 6 6 1 -5
BITMAP
7c
c0
7c
c0
3c
c0
ENDCHAR
STARTCHAR onesuperior
ENCODING 185
SWIDTH 280 0
DWIDTH 7 0
BBX 4 10 0 8
BITMAP
10
c0
00
c0
00
c0
00
c0
00
c0
ENDCHAR
STARTCHAR masculine
ENCODING 186
SWIDTH 400 0
DWIDTH 10 0
BBX 8 12 1 7
BITMAP
0c
c0
0c
c0
0c
c0
0c
c0
0c
c0
0c
c0
ENDCHAR
STARTCHAR guillemotright
ENCODING 187
SWIDTH 520 0
DWIDTH 13 0
BBX 10 8 1 3
BITMAP
0cc0
e0c0
e040
7800
1cc0
7800
30c0
f000
ENDCHAR
STARTCHAR onequarter
ENCODING 188
SWIDTH 760 0
DWIDTH 19 0
BBX 17 18 1 0
BITMAP
303000
303000
7ee780
c3c380
7e3c00
ffff80
007700
3b8000
c01d80
3b8000
00ee00
301800
301800
f03000
f03000
306000
306000
30c000
ENDCHAR
STARTCHAR onehalf
ENCODING 189
SWIDTH 760 0
DWIDTH 19 0
BBX 16 18 1 0
BITMAP
30c0
0031
8600
318e
0003
1e00
031e
0006
3600
0666
000c
7f80
0c7f
8018
0600
1806
0030
1830
ENDCHAR
STARTCHAR threequarters
ENCODING 190
SWIDTH 760 0
DWIDTH 19 0
BBX 17 18 1 0
BITMAP
18f000
f03000
603000
30c000
c03180
31bf00
330300
060700
1e0c00
0c3000
3f1800
781800
fc1800
cc3000
0c3000
386000
386000
0cc000
ENDCHAR
STARTCHAR questiondown
ENCODING 191
SWIDTH 600 0
DWIDTH 15 0
BBX 11 19 2 -5
BITMAP
ccc0
00e0
8600
7980
0000
1e00
0300
0000
3600
0660
0000
7f80
0c60
8000
0600
1800
0000
0000
0000
ENDCHAR
STARTCHAR Agrave
ENCODING 192
SWIDTH 720 0
DWIDTH 18 0
BBX 16 24 1 0
BITMAP
0000
0000
000e
000e
000e
000e
001c
003c
0078
0070
00f0
e0e0
e0e1
e0f3
c07f
c03f
000e
0007
0003
8001
c000
0003
c003
c007
ENDCHAR
STARTCHAR Aacute
ENCODING 193
SWIDTH 720 0
DWIDTH 18 0
BBX 16 24 1 0
BITMAP
e007
e00e
600e
700e
701c
381c
381c
3838
1c38
1c3f
fc7f
fe70
0e70
0ee0
07e0
07e0
0700
3800
7000
e001
c000
0003
c003
c007
ENDCHAR
STARTCHAR Acircumflex
ENCODING 194
SWIDTH 720 0
DWIDTH 18 0
BBX 16 24 1 0
BITMAP
e007
e00e
600e
700e
701c
381c
381c
3838
1c38
1c3f
fc7f
fe70
0e70
0ee0
07e0
07e0
0701
c003
e007
700e
3800
0003
c003
c007
ENDCHAR
STARTCHAR Atilde
ENCODING 195
SWIDTH 720 0
DWIDTH 18 0
BBX 16 23 1 0
BITMAP
e007
e00e
600e
700e
701c
381c
381c
3838
1c38
1c3f
fc7f
fe70
0e70
0ee0
07e0
07e0
0707
980f
f80c
f000
0003
c003
c007
ENDCHAR
STARTCHAR Adiaeresis
ENCODING 196
SWIDTH 720 0
DWIDTH 18 0
BBX 16 23 1 0
BITMAP
e007
e00e
600e
700e
701c
381c
381c
3838
1c38
1c3f
fc7f
fe70
0e70
0ee0
07e0
07e0
070e
700e
7000
0000
0003
c003
c007
ENDCHAR
STARTCHAR Aring
ENCODING 197
SWIDTH 720 0
DWIDTH 18 0
BBX 16 23 1 0
BITMAP
e007
e00e
600e
700e
701c
381c
381c
3838
1c38
1c3f
fc7f
fe70
0e70
0ee0
07e0
07e0
0703
c006
6006
6006
6003
c003
c007
ENDCHAR
STARTCHAR AE
ENCODING 198
SWIDTH 960 0
DWIDTH 24 0
BBX 22 19 1 0
BITMAP
e007e0
0e600c
700e70
1c381c
381c38
381c38
1c3ffc
7ffe70
0e700c
e007e0
07e004
03fff8
03fff8
07f000
067000
0e7000
0e7000
0e7000
1c7000
ENDCHAR
STARTCHAR Ccedilla
ENCODING 199
SWIDTH 720 0
DWIDTH 18 0
BBX 16 24 1 -5
BITMAP
1c7f
f01c
7ff0
3870
0038
7000
3ff0
007f
f000
7070
0070
7000
e070
00e0
7ffc
e07f
fc07
f01f
fc3e
3e78
0f70
07f0
00e0
00e0
ENDCHAR
STARTCHAR Egrave
ENCODING 200
SWIDTH 640 0
DWIDTH 16 0
BBX 13 24 2 0
BITMAP
00e0
00e0
00e0
00e0
00e0
00f0
0770
0778
0f38
3e18
fc00
f000
c000
e000
e000
e000
c070
0038
0018
0008
0000
00f8
f0f8
f0e0
ENDCHAR
STARTCHAR Eacute
ENCODING 201
SWIDTH 640 0
DWIDTH 16 0
BBX 13 24 2 0
BITMAP
00e0
00e0
00e0
00e0
00e0
00f8
e0f8
e0e0
00e0
00e0
00e0
00e0
00e0
00e0
00f8
f8f8
f800
e000
c000
8000
0000
00f8
f0f8
f0e0
ENDCHAR
STARTCHAR Ecircumflex
ENCODING 202
SWIDTH 640 0
DWIDTH 16 0
BBX 13 24 2 0
BITMAP
00e0
00e0
00e0
00e0
00e0
00f8
e0f8
e0e0
00e0
00e0
00e0
00e0
00e0
00e0
00f8
f8f8
f800
0008
8018
c038
e000
00f8
f0f8
f0e0
ENDCHAR
STARTCHAR Ediaeresis
ENCODING 203
SWIDTH 640 0
DWIDTH 16 0
BBX 13 23 2 0
BITMAP
00e0
00e0
00e0
00e0
00e0
00f8
e0f8
e0e0
00e0
00e0
00e0
00e0
00e0
00e0
00f8
f8f8
f838
c038
c000
0000
00f8
f0f8
f0e0
ENDCHAR
STARTCHAR Igrave
ENCODING 204
SWIDTH 280 0
DWIDTH 7 0
BBX 6 24 0 0
BITMAP
00
e0
00
e0
00
e0
00
e0
00
e0
00
fc
e0
fc
e0
e0
00
e0
00
e0
00
e0
00
e0
ENDCHAR
STARTCHAR Iacute
ENCODING 205
SWIDTH 280 0
DWIDTH 7 0
BBX 6 24 2 0
BITMAP
00
e0
00
e0
00
fc
f8
fc
f8
e0
70
38
1c
00
38
38
38
38
38
38
38
38
38
38
ENDCHAR
STARTCHAR Icircumflex
ENCODING 206
SWIDTH 280 0
DWIDTH 7 0
BBX 9 24 -1 0
BITMAP
3800
3800
3800
3800
3800
3800
e000
e080
e080
e080
e080
e080
e080
e080
e080
e080
e000
0000
0000
0080
8000
0000
0000
0000
ENDCHAR
STARTCHAR Idiaeresis
ENCODING 207
SWIDTH 280 0
DWIDTH 7 0
BBX 7 23 0 0
BITMAP
00
1c
00
1c
00
1c
00
1c
00
1c
00
1c
00
1c
00
1c
00
1c
00
1c
00
1c
00
ENDCHAR
STARTCHAR ETH
ENCODING 208
SWIDTH 760 0
DWIDTH 19 0
BBX 19 19 -1 0
BITMAP
1c0000
001c00
1c0000
00eee0
000020
383820
383820
383820
383820
383820
383820
1ffc00
1fff00
1c0f80
1c03c0
1c01c0
1c01e0
1c00e0
1c00e0
ENDCHAR
STARTCHAR Ntilde
ENCODING 209
SWIDTH 760 0
DWIDTH 19 0
BBX 15 23 2 0
BITMAP
ffc0
e0fe
c0e0
1c00
e01c
00e0
1c00
e01c
01e0
1c00
c01c
03c0
1c0e
801e
ff00
1ffc
000e
301e
f018
e000
00e0
0ef0
0ef0
ENDCHAR
STARTCHAR Ograve
ENCODING 210
SWIDTH 760 0
DWIDTH 19 0
BBX 17 24 1 0
BITMAP
0ef800
f80e80
0eee00
ee0e80
0ee380
e38e80
cee080
e0ee80
7ee000
e03e80
1ee000
070000
038000
01c000
00e000
000000
07f000
1ffc00
3e3e00
780f00
700700
f00780
e00380
e00380
ENDCHAR
STARTCHAR Oacute
ENCODING 211
SWIDTH 760 0
DWIDTH 19 0
BBX 17 24 1 0
BITMAP
e00380
e00380
e00380
e00380
e00380
f00780
700700
780f00
3e3e00
1ffc00
07f000
003800
007000
00e000
01c000
000000
07f000
1ffc00
3e3e00
780f00
700700
f00780
e00380
e00380
ENDCHAR
STARTCHAR Ocircumflex
ENCODING 212
SWIDTH 760 0
DWIDTH 19 0
BBX 17 24 1 0
BITMAP
e00380
e00380
e00380
e00380
e00380
f00780
700700
780f00
3e3e00
1ffc00
07f000
01c000
03e000
077000
0e3800
000000
07f000
1ffc00
3e3e00
780f00
700700
f00780
e00380
e00380
ENDCHAR
STARTCHAR Otilde
ENCODING 213
SWIDTH 760 0
DWIDTH 19 0
BBX 17 24 1 0
BITMAP
e00380
e00380
e00380
e00380
e00380
f00780
700700
780f00
3e3e00
1ffc00
07f000
079800
0ff800
0cf000
000000
000000
07f000
1ffc00
3e3e00
780f00
700700
f00780
e00380
e00380
ENDCHAR
STARTCHAR Odiaeresis
ENCODING 214
SWIDTH 760 0
DWIDTH 19 0
BBX 17 23 1 0
BITMAP
e00380
e00380
e00380
e00380
e00380
f00780
700700
780f00
3e3e00
1ffc00
07f000
0e3800
0e3800
000000
000000
07f000
1ffc00
3e3e00
780f00
700700
f00780
e00380
e00380
ENDCHAR
STARTCHAR multiply
ENCODING 215
SWIDTH 600 0
DWIDTH 15 0
BBX 12 12 1 1
BITMAP
e000
80e0
0380
e000
80e0
0380
e000
80f0
0780
7000
0070
0f00
ENDCHAR
STARTCHAR Ooblique
ENCODING 216
SWIDTH 760 0
DWIDTH 19 0
BBX 19 19 0 0
BITMAP
3e3e00
1ffc00
07f000
4020e0
7070e0
39c000
800f00
0f0000
8039c0
70e0e0
704020
03f860
0ffee0
1f1fc0
3c0380
380780
780fc0
701dc0
7039c0
ENDCHAR
STARTCHAR Ugrave
ENCODING 217
SWIDTH 760 0
DWIDTH 19 0
BBX 15 24 2 0
BITMAP
7070
c070
e1c0
71c0
c072
81c0
7700
c07e
03c0
3c02
803c
0780
7f1e
00ee
fe00
c3f8
000e
0006
0002
8000
c000
00e0
0ee0
0ee0
ENDCHAR
STARTCHAR Uacute
ENCODING 218
SWIDTH 760 0
DWIDTH 19 0
BBX 15 24 2 0
BITMAP
0ee0
0ee0
0ee0
0ee0
0ee0
0ee0
0ee0
0ee0
0ee0
0ee0
0ef0
1ef0
1e70
1c7c
7c3e
f80e
e000
7000
e000
c002
8000
00e0
0ee0
0ee0
ENDCHAR
STARTCHAR Ucircumflex
ENCODING 219
SWIDTH 760 0
DWIDTH 19 0
BBX 15 24 2 0
BITMAP
0ee0
0ee0
0ee0
0ee0
0ee0
0ee0
0ee0
0ee0
0ee0
0ee0
0ef0
1ef0
1e70
1c7c
7c3e
f80e
e006
800e
c01c
e038
7000
00e0
0ee0
0ee0
ENDCHAR
STARTCHAR Udiaeresis
ENCODING 220
SWIDTH 760 0
DWIDTH 19 0
BBX 15 23 2 0
BITMAP
0ee0
0ee0
0ee0
0ee0
0ee0
0ee0
0ee0
0ee0
0ee0
0ee0
0ef0
1ef0
1e70
1c7c
7c3e
f80e
e01c
701c
7000
0000
00e0
0ee0
0ee0
ENDCHAR
STARTCHAR Yacute
ENCODING 221
SWIDTH 680 0
DWIDTH 17 0
BBX 15 24 1 0
BITMAP
0ee0
0ee0
0ee0
0ee0
0ee0
0ee0
0ee0
0ee0
0ee0
0ee0
0ef0
1ef0
1e70
1c7c
7c3e
f80e
e000
7000
e000
c002
8000
00f0
1e70
1c78
ENDCHAR
STARTCHAR THORN
ENCODING 222
SWIDTH 680 0
DWIDTH 17 0
BBX 14 19 2 0
BITMAP
3c38
383c
781c
701c
f00c
e00c
e004
c004
c000
8000
8000
8000
8000
8000
8000
8000
80e0
00e0
00e0
ENDCHAR
STARTCHAR ssharp
ENCODING 223
SWIDTH 560 0
DWIDTH 14 0
BBX 11 19 2 0
BITMAP
00e0
00e0
e0e0
f8e0
38e0
1ce0
1ce0
1ce0
1ce0
38e0
f8e0
f0e0
00e0
00e0
00e0
00e0
0000
0060
80e0
ENDCHAR
STARTCHAR agrave
ENCODING 224
SWIDTH 560 0
DWIDTH 14 0
BBX 12 19 1 0
BITMAP
80e0
c0e0
c0e0
c0e0
c0e0
80e0
00e0
80e0
c0e0
c0e0
e0e0
e0e0
e0e0
e0e0
c0e0
c0e0
8010
0000
0000
ENDCHAR
STARTCHAR aacute
ENCODING 225
SWIDTH 560 0
DWIDTH 14 0
BBX 12 19 1 0
BITMAP
0000
8000
0010
8030
c070
e070
e000
e000
e030
e070
e0f0
e0e0
e0e0
e0f0
e070
f030
7000
c000
8000
ENDCHAR
STARTCHAR acircumflex
ENCODING 226
SWIDTH 560 0
DWIDTH 14 0
BBX 12 19 1 0
BITMAP
0000
0000
0010
8030
c070
e070
e000
e000
e030
e070
e0f0
e0e0
e0e0
e0f0
e070
f030
7000
0000
8010
ENDCHAR
STARTCHAR atilde
ENCODING 227
SWIDTH 560 0
DWIDTH 14 0
BBX 12 19 1 0
BITMAP
c030
e000
0010
8030
c070
e070
e000
e000
e030
e070
e0f0
e0e0
e0e0
e0f0
e070
f030
7010
6030
e030
ENDCHAR
STARTCHAR adiaeresis
ENCODING 228
SWIDTH 560 0
DWIDTH 14 0
BBX 12 18 1 0
BITMAP
c000
0000
0010
8030
c070
e070
e000
e000
e030
e070
e0f0
e0e0
e0e0
e0f0
e070
f030
7010
c010
ENDCHAR
STARTCHAR aring
ENCODING 229
SWIDTH 560 0
DWIDTH 14 0
BBX 12 19 1 0
BITMAP
c000
0000
0010
8030
c070
e070
e000
e000
e030
e070
e0f0
e0e0
e0e0
e0f0
e070
f030
7000
0010
8010
ENDCHAR
STARTCHAR ae
ENCODING 230
SWIDTH 880 0
DWIDTH 22 0
BBX 20 14 1 0
BITMAP
801980
0f0010
803fc0
71e070
e000e0
07e030
e07ce0
f0e0e0
e0e1e0
f3e070
f03e70
1f8f00
3fffc0
71f9e0
ENDCHAR
STARTCHAR ccedilla
ENCODING 231
SWIDTH 520 0
DWIDTH 13 0
BBX 11 19 1 -5
BITMAP
70e0
e000
e060
07e0
7020
ffe0
7ce0
f0e0
e000
e0e0
00e0
f060
f3e0
f060
3fe0
3e00
8000
8020
c060
ENDCHAR
STARTCHAR egrave
ENCODING 232
SWIDTH 560 0
DWIDTH 14 0
BBX 12 19 1 0
BITMAP
e070
e0e0
00e0
00e0
00e0
00e0
00e0
0070
e070
e030
c010
8010
0000
0000
0030
0010
0010
0000
0000
ENDCHAR
STARTCHAR eacute
ENCODING 233
SWIDTH 560 0
DWIDTH 14 0
BBX 12 19 1 0
BITMAP
0000
8000
0000
0030
c070
e070
e0e0
70e0
70f0
f0f0
f0e0
00e0
0070
7070
f030
e000
8000
c000
8000
ENDCHAR
STARTCHAR ecircumflex
ENCODING 234
SWIDTH 560 0
DWIDTH 14 0
BBX 12 19 1 0
BITMAP
0000
0000
0000
0030
c070
e070
e0e0
70e0
70f0
f0f0
f0e0
00e0
0070
7070
f030
e000
8000
0000
8010
ENDCHAR
STARTCHAR ediaeresis
ENCODING 235
SWIDTH 560 0
DWIDTH 14 0
BBX 12 18 1 0
BITMAP
c030
e000
0000
0030
c070
e070
e0e0
70e0
70f0
f0f0
f0e0
00e0
0070
7070
f030
e000
8030
c030
ENDCHAR
STARTCHAR igrave
ENCODING 236
SWIDTH 280 0
DWIDTH 7 0
BBX 6 19 1 0
BITMAP
c0
00
00
00
00
0c
00
3c
c0
78
e0
70
e0
e0
70
e0
70
fc
f0
ENDCHAR
STARTCHAR iacute
ENCODING 237
SWIDTH 280 0
DWIDTH 7 0
BBX 6 19 1 0
BITMAP
fc
f0
e0
00
e0
00
70
70
78
f0
3c
e0
0c
80
e0
70
38
1c
00
ENDCHAR
STARTCHAR icircumflex
ENCODING 238
SWIDTH 280 0
DWIDTH 7 0
BBX 9 19 -1 0
BITMAP
7000
7000
7000
7000
7000
7000
7000
1c00
7080
0000
7000
7000
7000
7000
7000
7000
7000
0000
0000
ENDCHAR
STARTCHAR idiaeresis
ENCODING 239
SWIDTH 280 0
DWIDTH 7 0
BBX 7 18 0 0
BITMAP
00
e2
80
00
00
1c
00
1c
00
1c
00
1c
00
1c
00
1c
00
1c
ENDCHAR
STARTCHAR eth
ENCODING 240
SWIDTH 560 0
DWIDTH 14 0
BBX 12 19 1 0
BITMAP
0010
0010
0010
0010
0010
0010
0010
00e0
ee00
0030
3830
3830
3830
3830
3830
3830
38e0
0030
c010
ENDCHAR
STARTCHAR ntilde
ENCODING 241
SWIDTH 600 0
DWIDTH 15 0
BBX 11 19 2 0
BITMAP
0020
00c0
0000
8020
c060
e060
e0e0
70e0
70e0
70e0
70e0
70e0
7060
e060
e020
c000
0020
c060
c060
ENDCHAR
STARTCHAR ograve
ENCODING 242
SWIDTH 560 0
DWIDTH 14 0
BBX 12 19 1 0
BITMAP
8000
0000
00e0
80f0
c0f0
c0e0
e0e0
e0e0
e0e0
e0e0
e0e0
e0e0
e0e0
e0e0
e0e0
e0e0
e010
0000
0000
ENDCHAR
STARTCHAR oacute
ENCODING 243
SWIDTH 560 0
DWIDTH 14 0
BBX 12 19 1 0
BITMAP
0000
8000
0000
0030
c070
e070
e0e0
70e0
70e0
70e0
70e0
70e0
7070
e070
e030
c000
0000
c000
8000
ENDCHAR
STARTCHAR ocircumflex
ENCODING 244
SWIDTH 560 0
DWIDTH 14 0
BBX 12 19 1 0
BITMAP
0000
0000
0000
0030
c070
e070
e0e0
70e0
70e0
70e0
70e0
70e0
7070
e070
e030
c000
0000
0000
8010
ENDCHAR
STARTCHAR otilde
ENCODING 245
SWIDTH 560 0
DWIDTH 14 0
BBX 12 19 1 0
BITMAP
c030
e000
0000
0030
c070
e070
e0e0
70e0
70e0
70e0
70e0
70e0
7070
e070
e030
c000
0010
6030
e030
ENDCHAR
STARTCHAR odiaeresis
ENCODING 246
SWIDTH 560 0
DWIDTH 14 0
BBX 12 18 1 0
BITMAP
c000
0000
0000
0030
c070
e070
e0e0
70e0
70e0
70e0
70e0
70e0
7070
e070
e030
c000
0010
c010
ENDCHAR
STARTCHAR division
ENCODING 247
SWIDTH 600 0
DWIDTH 15 0
BBX 11 12 2 1
BITMAP
c000
0000
0000
0020
c060
e060
e0e0
70e0
70e0
70e0
70e0
70e0
ENDCHAR
STARTCHAR oslash
ENCODING 248
SWIDTH 560 0
DWIDTH 14 0
BBX 14 14 0 0
BITMAP
7070
e078
e03c
c00c
000c
000c
000c
0000
0000
00fc
e0fc
e000
0000
000c
ENDCHAR
STARTCHAR ugrave
ENCODING 249
SWIDTH 600 0
DWIDTH 15 0
BBX 11 19 2 0
BITMAP
0000
0000
0000
8c00
f820
f020
7060
f860
f860
b860
3860
3860
3820
7060
f0c0
e080
8020
0000
0000
ENDCHAR
STARTCHAR uacute
ENCODING 250
SWIDTH 600 0
DWIDTH 15 0
BBX 11 19 2 0
BITMAP
0000
0000
00e0
e0e0
e0e0
e0e0
e0e0
e0e0
e0e0
e0e0
e0e0
e0e0
e0e0
e060
e060
e000
e000
8000
0000
ENDCHAR
STARTCHAR ucircumflex
ENCODING 251
SWIDTH 600 0
DWIDTH 15 0
BBX 11 19 2 0
BITMAP
0000
0000
00e0
e0e0
e0e0
e0e0
e0e0
e0e0
e0e0
e0e0
e0e0
e0e0
e0e0
e060
e060
e000
e000
0000
0020
ENDCHAR
STARTCHAR udiaeresis
ENCODING 252
SWIDTH 600 0
DWIDTH 15 0
BBX 11 18 2 0
BITMAP
8060
c000
00e0
e0e0
e0e0
e0e0
e0e0
e0e0
e0e0
e0e0
e0e0
e0e0
e0e0
e060
e060
e000
e020
8020
ENDCHAR
STARTCHAR yacute
ENCODING 253
SWIDTH 600 0
DWIDTH 15 0
BBX 13 24 1 -5
BITMAP
8000
0000
00e0
e0e0
e0e0
e0e0
e0e0
e0e0
e0e0
e0e0
e0e0
e0e0
e0e0
e070
e078
e018
e000
e000
c000
8000
0000
00e0
38e0
3870
ENDCHAR
STARTCHAR thorn
ENCODING 254
SWIDTH 600 0
DWIDTH 15 0
BBX 12 24 2 -5
BITMAP
3870
7030
7030
f010
e010
e000
c000
c000
c000
8000
8000
8000
0000
0000
0030
0030
00e0
00e0
00e0
00e0
00e0
00e0
80f0
c0f0
ENDCHAR
STARTCHAR ydiaeresis
ENCODING 255
SWIDTH 600 0
DWIDTH 15 0
BBX 13 23 1 -5
BITMAP
e0f0
e0e0
70e0
70e0
70e0
70e0
70e0
70f0
e0f8
e0f8
c0e8
80e0
00e0
00e0
00e0
00e0
0018
e018
e000
0000
00e0
38e0
3870
ENDCHAR
ENDFONT
